grf
version=1
nRows=11
nColumns=37
inDegrees=no
endheader
time	ground_force_1_vx	ground_force_1_vy	ground_force_1_vz	ground_force_1_px	ground_force_1_py	ground_force_1_pz	ground_moment_1_mx	ground_moment_1_my	ground_moment_1_mz	ground_force_2_vx	ground_force_2_vy	ground_force_2_vz	ground_force_2_px	ground_force_2_py	ground_force_2_pz	ground_moment_2_mx	ground_moment_2_my	ground_moment_2_mz	ground_force_3_vx	ground_force_3_vy	ground_force_3_vz	ground_force_3_px	ground_force_3_py	ground_force_3_pz	ground_moment_3_mx	ground_moment_3_my	ground_moment_3_mz	ground_force_4_vx	ground_force_4_vy	ground_force_4_vz	ground_force_4_px	ground_force_4_py	ground_force_4_pz	ground_moment_4_mx	ground_moment_4_my	ground_moment_4_mz
      5.34000000	      0.00000000	     -0.00000000	      0.00000000	      0.00000000	      0.00000000	      0.00000000	      0.00000000	      0.00000000	      0.00000000	    -18.11469078	     98.58813477	   -518.78204346	   -275.53676713	  -1204.04845980	      0.00000000	      0.00000000	      0.00000000	   2740.49062661	      6.29474042	    -79.30547388	   -416.87237549	   -319.27284096	   -598.85469295	      0.00000000	     -0.00000000	     -0.00000000	  -3572.46272512	      0.00000000	     -0.00000000	      0.00000000	      0.00000000	      0.00000000	      0.00000000	      0.00000000	      0.00000000	      0.00000000
      5.35000000	      0.00000000	     -0.00000000	      0.00000000	      0.00000000	      0.00000000	      0.00000000	      0.00000000	      0.00000000	      0.00000000	    -18.15559006	     99.12319183	   -518.90197754	   -276.25847473	  -1203.40936896	      0.00000000	      0.00000000	      0.00000000	   2854.73428153	      4.43167761	    -78.79061928	   -412.40878296	   -319.02827500	   -598.97643615	      0.00000000	      0.00000000	     -0.00000000	  -3598.91090779	      0.00000000	     -0.00000000	      0.00000000	      0.00000000	      0.00000000	      0.00000000	      0.00000000	      0.00000000	      0.00000000
      5.36000000	      0.00000000	     -0.00000000	      0.00000000	      0.00000000	      0.00000000	      0.00000000	      0.00000000	      0.00000000	      0.00000000	    -18.88656235	     99.39602661	   -522.43572998	   -275.32801711	  -1203.35118657	      0.00000000	      0.00000000	      0.00000000	   2509.41786889	      3.36703065	    -78.75921660	   -413.31732178	   -318.17425143	   -599.07648586	      0.00000000	     -0.00000000	      0.00000000	  -3492.14679148	      0.00000000	     -0.00000000	      0.00000000	      0.00000000	      0.00000000	      0.00000000	      0.00000000	      0.00000000	      0.00000000
      5.37000000	      0.00000000	     -0.00000000	      0.00000000	      0.00000000	      0.00000000	      0.00000000	      0.00000000	      0.00000000	      0.00000000	    -18.27747345	     99.84739685	   -526.21697998	   -276.62333094	  -1204.40496447	      0.00000000	      0.00000000	      0.00000000	   2702.60879236	      2.57670501	    -78.78294395	   -416.12417603	   -318.14910835	   -598.82768121	      0.00000000	     -0.00000000	     -0.00000000	  -3641.01003155	      0.00000000	     -0.00000000	      0.00000000	      0.00000000	      0.00000000	      0.00000000	      0.00000000	      0.00000000	      0.00000000
      5.38000000	      0.00000000	     -0.00000000	      0.00000000	      0.00000000	      0.00000000	      0.00000000	      0.00000000	      0.00000000	      0.00000000	    -17.77647972	    100.51723480	   -530.05810547	   -276.96755496	  -1204.15737238	      0.00000000	      0.00000000	      0.00000000	   2560.62085735	      2.14173027	    -79.49793262	   -418.91540527	   -318.38187768	   -598.78137002	      0.00000000	     -0.00000000	     -0.00000000	  -3581.30897219	      0.00000000	     -0.00000000	      0.00000000	      0.00000000	      0.00000000	      0.00000000	      0.00000000	      0.00000000	      0.00000000
      5.39000000	      0.00000000	     -0.00000000	      0.00000000	      0.00000000	      0.00000000	      0.00000000	      0.00000000	      0.00000000	      0.00000000	    -16.96120834	    100.78968811	   -532.33093262	   -278.03062014	  -1203.22522097	      0.00000000	      0.00000000	      0.00000000	   2639.30304973	      3.25611575	    -80.97361021	   -422.83981323	   -319.80536017	   -599.78587843	      0.00000000	      0.00000000	     -0.00000000	  -3772.32827848	      0.00000000	     -0.00000000	      0.00000000	      0.00000000	      0.00000000	      0.00000000	      0.00000000	      0.00000000	      0.00000000
      5.40000000	      0.00000000	     -0.00000000	      0.00000000	      0.00000000	      0.00000000	      0.00000000	      0.00000000	      0.00000000	      0.00000000	    -16.10131073	    101.12535095	   -537.47192383	   -279.22710171	  -1204.06552259	      0.00000000	     -0.00000000	      0.00000000	   2559.41121939	      3.13175030	    -82.30689267	   -428.02459717	   -320.30566931	   -599.97982441	      0.00000000	      0.00000000	     -0.00000000	  -3436.72625120	      0.00000000	     -0.00000000	      0.00000000	      0.00000000	      0.00000000	      0.00000000	      0.00000000	      0.00000000	      0.00000000
      5.41000000	      0.00000000	     -0.00000000	      0.00000000	      0.00000000	      0.00000000	      0.00000000	      0.00000000	      0.00000000	      0.00000000	    -14.79139137	    102.22087860	   -540.34216309	   -280.62827215	  -1203.02702190	      0.00000000	      0.00000000	      0.00000000	   2637.72618869	      4.00579813	    -84.17973363	   -434.01361084	   -322.88296306	   -600.31912451	      0.00000000	     -0.00000000	     -0.00000000	  -3536.65880681	      0.00000000	     -0.00000000	      0.00000000	      0.00000000	      0.00000000	      0.00000000	      0.00000000	      0.00000000	      0.00000000
      5.42000000	      0.00000000	     -0.00000000	      0.00000000	      0.00000000	      0.00000000	      0.00000000	      0.00000000	      0.00000000	      0.00000000	    -13.19717693	    102.93964386	   -545.99255371	   -282.25923929	  -1202.54416356	      0.00000000	      0.00000000	      0.00000000	   2808.74585768	      4.94886176	    -85.39293714	   -438.93948364	   -323.14568853	   -600.91489691	      0.00000000	      0.00000000	     -0.00000000	  -3531.35433154	      0.00000000	     -0.00000000	      0.00000000	      0.00000000	      0.00000000	      0.00000000	      0.00000000	      0.00000000	      0.00000000
      5.43000000	      0.00000000	     -0.00000000	      0.00000000	      0.00000000	      0.00000000	      0.00000000	      0.00000000	      0.00000000	      0.00000000	    -11.44952679	    102.88704681	   -551.99603271	   -283.34601864	  -1202.31352603	      0.00000000	      0.00000000	      0.00000000	   2844.64494530	      5.73210247	    -86.39801076	   -445.05331421	   -325.01610191	   -601.59825028	      0.00000000	      0.00000000	     -0.00000000	  -3489.89010700	      0.00000000	     -0.00000000	      0.00000000	      0.00000000	      0.00000000	      0.00000000	      0.00000000	      0.00000000	      0.00000000
      5.44000000	      0.00000000	     -0.00000000	      0.00000000	      0.00000000	      0.00000000	      0.00000000	      0.00000000	      0.00000000	      0.00000000	     -9.93977070	    102.54979706	   -556.56219482	   -285.47191616	  -1201.85426971	      0.00000000	      0.00000000	      0.00000000	   3108.07105210	      5.66750811	    -87.42854359	   -448.38919067	   -325.64297176	   -602.07451635	      0.00000000	      0.00000000	     -0.00000000	  -3448.29175853	      0.00000000	     -0.00000000	      0.00000000	      0.00000000	      0.00000000	      0.00000000	      0.00000000	      0.00000000	      0.00000000
